HIERARCHY
ROOT Hips
{
  OFFSET 5.84602e-005 68.8428 3.50346
  CHANNELS 6 Xposition Yposition Zposition Zrotation Xrotation Yrotation
  JOINT Spine
  {
    OFFSET 0 8.597 -4.6522
    CHANNELS 3 Zrotation Xrotation Yrotation
    JOINT Spine1
    {
      OFFSET 0 7.8454 0.4098
      CHANNELS 3 Zrotation Xrotation Yrotation
      JOINT Spine2
      {
        OFFSET 0 9.7078 -2.1609
        CHANNELS 3 Zrotation Xrotation Yrotation
        JOINT Neck
        {
          OFFSET 0 21.8761 -0.4549
          CHANNELS 3 Zrotation Xrotation Yrotation
          JOINT Head
          {
            OFFSET 0 12.3537 3.3602
            CHANNELS 3 Zrotation Xrotation Yrotation
            End Site
            {
              OFFSET 0.0001 18.9506 0.5657
            }
          }
        }
        JOINT LeftShoulder
        {
          OFFSET 2.2086 21.1115 7.2329
          CHANNELS 3 Zrotation Xrotation Yrotation
          JOINT LeftArm
          {
            OFFSET 13.1193 3.0282 -4.8998
            CHANNELS 3 Zrotation Xrotation Yrotation
            JOINT LeftForeArm
            {
              OFFSET 27.4081 -0.0973053 -0.2375
              CHANNELS 3 Zrotation Xrotation Yrotation
              JOINT LeftHand
              {
                OFFSET 22.8641 0.0662994 -0.1369
                CHANNELS 3 Zrotation Xrotation Yrotation
                JOINT LeftHandIndex1
                {
                  OFFSET 8.8614 0.775009 2.4612
                  CHANNELS 3 Zrotation Xrotation Yrotation
                  JOINT LeftHandIndex2
                  {
                    OFFSET 3.3146 -0.808304 0.5841
                    CHANNELS 3 Zrotation Xrotation Yrotation
                    JOINT LeftHandIndex3
                    {
                      OFFSET 2.2628 -0.552002 0.3989
                      CHANNELS 3 Zrotation Xrotation Yrotation
                      End Site
                      {
                        OFFSET 1.6102 -0.4807 0.2612
                      }
                    }
                  }
                }
                JOINT LeftHandMiddle1
                {
                  OFFSET 8.9937 0.895004 0.2143
                  CHANNELS 3 Zrotation Xrotation Yrotation
                  JOINT LeftHandMiddle2
                  {
                    OFFSET 4.0984 0.0113983 -0.0242
                    CHANNELS 3 Zrotation Xrotation Yrotation
                    JOINT LeftHandMiddle3
                    {
                      OFFSET 2.2716 0.00689697 -0.0138001
                      CHANNELS 3 Zrotation Xrotation Yrotation
                      End Site
                      {
                        OFFSET 2.0404 -0.1441 0.0027
                      }
                    }
                  }
                }
                JOINT LeftHandRing1
                {
                  OFFSET 8.5234 0.597198 -2.0164
                  CHANNELS 3 Zrotation Xrotation Yrotation
                  JOINT LeftHandRing2
                  {
                    OFFSET 3.7188 -0.188293 -0.2328
                    CHANNELS 3 Zrotation Xrotation Yrotation
                    JOINT LeftHandRing3
                    {
                      OFFSET 2.1191 -0.106598 -0.1332
                      CHANNELS 3 Zrotation Xrotation Yrotation
                      End Site
                      {
                        OFFSET 1.8737 -0.2304 -0.0886
                      }
                    }
                  }
                }
                JOINT LeftHandPinky1
                {
                  OFFSET 7.9094 -0.601089 -3.4825
                  CHANNELS 3 Zrotation Xrotation Yrotation
                  JOINT LeftHandPinky2
                  {
                    OFFSET 2.2874 -0.477005 -0.6314
                    CHANNELS 3 Zrotation Xrotation Yrotation
                    JOINT LeftHandPinky3
                    {
                      OFFSET 1.6774 -0.349396 -0.4633
                      CHANNELS 3 Zrotation Xrotation Yrotation
                      End Site
                      {
                        OFFSET 1.4888 -0.4091 -0.3416
                      }
                    }
                  }
                }
                JOINT LeftHandThumb1
                {
                  OFFSET 1.833 -1.3875 1.3896
                  CHANNELS 3 Zrotation Xrotation Yrotation
                  JOINT LeftHandThumb2
                  {
                    OFFSET 3.4129 -1.121 2.5732
                    CHANNELS 3 Zrotation Xrotation Yrotation
                    JOINT LeftHandThumb3
                    {
                      OFFSET 2.2474 -0.804199 1.6192
                      CHANNELS 3 Zrotation Xrotation Yrotation
                      End Site
                      {
                        OFFSET 1.6527 -0.5689 1.1317
                      }
                    }
                  }
                }
              }
            }
          }
        }
        JOINT RightShoulder
        {
          OFFSET -2.2086 21.1115 7.2329
          CHANNELS 3 Zrotation Xrotation Yrotation
          JOINT RightArm
          {
            OFFSET -13.1216 3.0287 -4.9007
            CHANNELS 3 Zrotation Xrotation Yrotation
            JOINT RightForeArm
            {
              OFFSET -27.4081 -0.0973053 -0.2375
              CHANNELS 3 Zrotation Xrotation Yrotation
              JOINT RightHand
              {
                OFFSET -22.8641 0.0664063 -0.1369
                CHANNELS 3 Zrotation Xrotation Yrotation
                JOINT RightHandIndex1
                {
                  OFFSET -8.8614 0.774994 2.4612
                  CHANNELS 3 Zrotation Xrotation Yrotation
                  JOINT RightHandIndex2
                  {
                    OFFSET -3.3146 -0.808304 0.5841
                    CHANNELS 3 Zrotation Xrotation Yrotation
                    JOINT RightHandIndex3
                    {
                      OFFSET -2.2628 -0.552002 0.3989
                      CHANNELS 3 Zrotation Xrotation Yrotation
                      End Site
                      {
                        OFFSET -1.6102 -0.4807 0.2612
                      }
                    }
                  }
                }
                JOINT RightHandMiddle1
                {
                  OFFSET -8.9937 0.894989 0.2143
                  CHANNELS 3 Zrotation Xrotation Yrotation
                  JOINT RightHandMiddle2
                  {
                    OFFSET -4.0984 0.0113983 -0.0242
                    CHANNELS 3 Zrotation Xrotation Yrotation
                    JOINT RightHandMiddle3
                    {
                      OFFSET -2.2716 0.00691223 -0.0138001
                      CHANNELS 3 Zrotation Xrotation Yrotation
                      End Site
                      {
                        OFFSET -2.0404 -0.1441 0.0027
                      }
                    }
                  }
                }
                JOINT RightHandRing1
                {
                  OFFSET -8.5234 0.597198 -2.0164
                  CHANNELS 3 Zrotation Xrotation Yrotation
                  JOINT RightHandRing2
                  {
                    OFFSET -3.7188 -0.188309 -0.2328
                    CHANNELS 3 Zrotation Xrotation Yrotation
                    JOINT RightHandRing3
                    {
                      OFFSET -2.1191 -0.106598 -0.1332
                      CHANNELS 3 Zrotation Xrotation Yrotation
                      End Site
                      {
                        OFFSET -1.8737 -0.2304 -0.0886
                      }
                    }
                  }
                }
                JOINT RightHandPinky1
                {
                  OFFSET -7.9094 -0.601105 -3.4825
                  CHANNELS 3 Zrotation Xrotation Yrotation
                  JOINT RightHandPinky2
                  {
                    OFFSET -2.2874 -0.477005 -0.6314
                    CHANNELS 3 Zrotation Xrotation Yrotation
                    JOINT RightHandPinky3
                    {
                      OFFSET -1.6774 -0.349396 -0.4633
                      CHANNELS 3 Zrotation Xrotation Yrotation
                      End Site
                      {
                        OFFSET -1.4888 -0.4091 -0.3416
                      }
                    }
                  }
                }
                JOINT RightHandThumb1
                {
                  OFFSET -1.833 -1.38751 1.3896
                  CHANNELS 3 Zrotation Xrotation Yrotation
                  JOINT RightHandThumb2
                  {
                    OFFSET -3.41299 -1.12099 2.5732
                    CHANNELS 3 Zrotation Xrotation Yrotation
                    JOINT RightHandThumb3
                    {
                      OFFSET -2.24741 -0.804108 1.6192
                      CHANNELS 3 Zrotation Xrotation Yrotation
                      End Site
                      {
                        OFFSET -1.6527 -0.5689 1.1317
                      }
                    }
                  }
                }
              }
            }
          }
        }
      }
    }
  }
  JOINT RightUpLeg
  {
    OFFSET -9.1966 3.8861 -0.7581
    CHANNELS 3 Zrotation Xrotation Yrotation
    JOINT RightLeg
    {
      OFFSET -0.7359 -41.0265 0
      CHANNELS 3 Zrotation Xrotation Yrotation
      JOINT RightFoot
      {
        OFFSET 0 -40.2855 0
        CHANNELS 3 Zrotation Xrotation Yrotation
        JOINT RightToeBase
        {
          OFFSET 0 -5.6122 11.7359
          CHANNELS 3 Zrotation Xrotation Yrotation
          End Site
          {
            OFFSET 0 0 7.8731
          }
        }
      }
    }
  }
  JOINT LeftUpLeg
  {
    OFFSET 9.1965 3.8864 -0.7581
    CHANNELS 3 Zrotation Xrotation Yrotation
    JOINT LeftLeg
    {
      OFFSET 0.7359 -41.0268 0
      CHANNELS 3 Zrotation Xrotation Yrotation
      JOINT LeftFoot
      {
        OFFSET 0 -40.2855 0
        CHANNELS 3 Zrotation Xrotation Yrotation
        JOINT LeftToeBase
        {
          OFFSET 0 -5.6122 11.7359
          CHANNELS 3 Zrotation Xrotation Yrotation
          End Site
          {
            OFFSET 0 0 7.8731
          }
        }
      }
    }
  }
}
MOTION
Frames:	6
Frame Time:	0.0333333
39.967 8.61937 25.4613 179.997 58.9977 1.63597e-010 0.545716 7.9367 -0.571466 1.18962 15.8671 -1.23819 1.18962 15.8671 -1.23819 1.62456e-005 13.9934 -6.9734e-006 5.76527e-007 0.66221 -2.51805e-007 -48.1293 -3.43177 -4.73975 -0.821271 55.0946 12.2017 4.32137 36.0017 -9.07157 4.11513 7.2979 -4.99646 1.24041e-007 5.86165e-007 -2.37807e-006 2.73078e-007 2.31215e-007 -7.17157e-007 1.24041e-007 5.86165e-007 -2.37807e-006 1.24041e-007 5.86165e-007 -2.37807e-006 -0.0146118 -8.70151e-005 -5.32205e-006 0 0 -0 1.24041e-007 5.86165e-007 -2.37807e-006 -0.0187535 -0.0011774 6.48912e-005 1.21743e-007 5.86411e-007 -2.37797e-006 1.24041e-007 5.86165e-007 -2.37807e-006 -0.0122682 -0.00324943 0.000675178 4.41391e-032 7.95139e-016 -3.18055e-015 1.24041e-007 5.86165e-007 -2.37807e-006 2.73078e-007 2.31215e-007 -7.17157e-007 1.24041e-007 5.86165e-007 -2.37807e-006 46.3954 -6.70777 -13.6179 41.8659 -11.3924 70.763 -131.49 86.662 -172.036 -14.6632 -27.1784 9.36523 -1.08189e-006 2.0854e-006 2.91566e-006 -5.15216e-007 -7.49185e-007 1.41729e-006 1.49089e-015 3.18055e-015 -6.36111e-015 -1.08189e-006 2.0854e-006 2.91566e-006 0.0149557 -9.55442e-005 -1.50724e-006 -5.51627e-015 0 3.67752e-015 -1.08189e-006 2.0854e-006 2.91566e-006 0.0190241 -0.00119903 -5.61498e-005 -2.53828e-006 -1.73058e-006 -2.81539e-006 -1.08189e-006 2.0854e-006 2.91566e-006 0.0122555 -0.00324587 -0.000670095 5.36719e-015 -6.36111e-015 -1.19271e-015 -1.08189e-006 2.0854e-006 2.91566e-006 -5.15216e-007 -7.49185e-007 1.41729e-006 1.49089e-015 3.18055e-015 -6.36111e-015 -41.9986 -49.2109 -73.3199 -120.702 41.6539 137.469 -17.5948 -3.34498 -33.2121 -3.18055e-015 -3.18055e-015 4.77083e-015 59.1247 -51.5778 87.6875 131.12 40.6378 -125.58 23.8759 -10.7267 11.1052 -3.58288e-007 -4.5012e-007 -3.80326e-006 
39.966 8.61933 25.5651 179.997 58.9977 1.63597e-010 0.546556 7.86169 -0.569409 1.18989 15.7171 -1.23301 1.18989 15.7171 -1.23301 3.91006e-005 13.9933 -1.79349e-005 -6.27771e-008 0.61825 -4.08995e-007 -47.8064 -3.47671 -4.25949 -0.716487 55.1107 11.3165 4.09601 36.0329 -8.64373 3.93854 7.61926 -5.00598 3.88314e-007 1.7099e-007 4.41193e-008 3.88314e-007 1.7099e-007 4.41193e-008 3.88314e-007 1.7099e-007 4.41193e-008 3.88314e-007 1.7099e-007 4.41193e-008 -0.0146146 -8.79254e-005 -1.39432e-005 3.88316e-007 1.70984e-007 4.41408e-008 3.88314e-007 1.7099e-007 4.41193e-008 -0.0187573 -0.00117751 6.71372e-005 3.88317e-007 1.70982e-007 4.41433e-008 3.88314e-007 1.7099e-007 4.41193e-008 -0.012265 -0.00324708 0.000675623 3.88318e-007 1.70983e-007 4.41265e-008 3.88314e-007 1.7099e-007 4.41193e-008 3.88314e-007 1.7099e-007 4.41193e-008 3.88314e-007 1.7099e-007 4.41193e-008 46.5093 -6.44338 -13.6309 41.7783 -11.4161 70.3563 -134.029 87.3403 -169.997 -14.3461 -27.2034 9.30911 2.23668e-006 -1.2017e-006 2.18333e-006 1.76597e-007 -2.57213e-006 1.47383e-007 -3.57812e-015 3.18055e-015 1.98785e-016 2.23668e-006 -1.2017e-006 2.18333e-006 0.0149776 -9.19412e-005 1.38967e-006 -1.78906e-015 3.18055e-015 -4.37326e-015 2.23668e-006 -1.2017e-006 2.18333e-006 0.0190272 -0.00119171 -5.94366e-005 6.16232e-015 0 1.0138e-014 2.23668e-006 -1.2017e-006 2.18333e-006 0.0123034 -0.0032603 -0.000679459 -1.59028e-015 1.59028e-014 2.5842e-015 2.23668e-006 -1.2017e-006 2.18333e-006 1.76597e-007 -2.57213e-006 1.47383e-007 -3.57812e-015 3.18055e-015 1.98785e-016 -41.9996 -49.2108 -73.3197 -120.702 41.6541 137.469 -17.5938 -3.34475 -33.2115 1.03247e-006 -1.78427e-006 -5.86977e-006 58.7816 -51.4876 87.4039 130.943 40.9191 -125.313 23.8706 -10.733 11.1028 -9.54166e-015 -1.59028e-015 -1.15295e-014 
39.9649 8.6193 25.669 179.997 58.9977 1.63597e-010 0.547394 7.7867 -0.56735 1.19016 15.5671 -1.22784 1.19016 15.5671 -1.22784 2.145e-005 13.9934 -8.32599e-006 -1.85069e-007 0.574269 5.77023e-007 -47.4832 -3.51896 -3.77903 -0.611265 55.1259 10.4311 3.87027 36.0626 -8.21559 3.76185 7.94064 -5.01433 -3.88312e-007 -1.7094e-007 -4.43722e-008 -3.88312e-007 -1.7094e-007 -4.43722e-008 -3.88312e-007 -1.7094e-007 -4.43722e-008 -3.88312e-007 -1.7094e-007 -4.43722e-008 -0.0146074 -8.87614e-005 -1.12086e-006 -2.92484e-007 -2.19178e-007 7.18175e-007 -3.88312e-007 -1.7094e-007 -4.43722e-008 -0.0187638 -0.00117575 5.80515e-005 -4.83596e-007 -1.22517e-007 -8.0697e-007 -3.88312e-007 -1.7094e-007 -4.43722e-008 -0.0122618 -0.00324716 0.000669567 -3.88316e-007 -1.70934e-007 -4.43794e-008 -3.88312e-007 -1.7094e-007 -4.43722e-008 -3.88312e-007 -1.7094e-007 -4.43722e-008 -3.88312e-007 -1.7094e-007 -4.43722e-008 46.6232 -6.17904 -13.6443 41.6907 -11.4392 69.9496 -137.819 87.9916 -166.712 -14.0289 -27.2286 9.25315 -1.98785e-016 3.18055e-015 -5.76476e-015 7.95139e-016 -9.54166e-015 -1.98785e-016 -5.80304e-007 2.84362e-006 1.51704e-006 -1.98785e-016 3.18055e-015 -5.76476e-015 0.0149486 -9.02753e-005 -1.94206e-006 -5.8043e-007 2.84381e-006 1.51667e-006 -1.98785e-016 3.18055e-015 -5.76476e-015 0.0190328 -0.00119413 -6.05123e-005 -5.80451e-007 2.84388e-006 1.51657e-006 -1.98785e-016 3.18055e-015 -5.76476e-015 0.0122956 -0.00325431 -0.000674157 -5.80382e-007 2.8438e-006 1.51675e-006 -1.98785e-016 3.18055e-015 -5.76476e-015 7.95139e-016 -9.54166e-015 -1.98785e-016 -5.80304e-007 2.84362e-006 1.51704e-006 -42.0006 -49.2106 -73.3195 -120.701 41.6543 137.469 -17.5929 -3.34456 -33.2109 -2.14174e-006 1.78548e-005 3.00526e-007 58.44 -51.3965 87.1215 130.764 41.2 -125.045 23.8653 -10.7393 11.1001 3.48043e-008 1.07163e-005 4.33503e-006 
39.9639 8.61927 25.7728 179.997 58.9977 1.63597e-010 0.548229 7.7117 -0.565286 1.19044 15.4171 -1.22266 1.19044 15.4171 -1.22266 6.84922e-005 13.9933 -3.12904e-005 5.30408e-007 0.530316 -8.44687e-007 -47.1597 -3.5585 -3.29841 -0.505655 55.1402 9.54558 3.64415 36.0909 -7.78717 3.58476 8.26205 -5.01945 -4.77383e-007 -1.28436e-007 -8.08165e-007 -5.37937e-007 -2.77553e-007 3.14844e-007 -3.88314e-007 -1.70885e-007 -4.46193e-008 -4.77383e-007 -1.28436e-007 -8.08165e-007 -0.014604 -8.95532e-005 4.34554e-007 -3.01204e-007 -2.13439e-007 7.18899e-007 -4.77383e-007 -1.28436e-007 -8.08165e-007 -0.0187517 -0.00117647 5.51825e-005 -3.88317e-007 -1.70878e-007 -4.46433e-008 -4.77383e-007 -1.28436e-007 -8.08165e-007 -0.0122746 -0.00324895 0.000677622 -3.88318e-007 -1.70879e-007 -4.46265e-008 -4.77383e-007 -1.28436e-007 -8.08165e-007 -5.37937e-007 -2.77553e-007 3.14844e-007 -3.88314e-007 -1.70885e-007 -4.46193e-008 46.7371 -5.91477 -13.6584 41.6028 -11.4617 69.5428 -144.427 88.6099 -160.615 -13.7117 -27.2541 9.19735 -7.15625e-015 6.36111e-015 2.38542e-015 -2.38542e-015 9.54166e-015 4.77083e-015 -1.98785e-015 9.54166e-015 -7.95139e-016 -7.15625e-015 6.36111e-015 2.38542e-015 0.0149552 -8.77542e-005 1.51758e-006 -5.96354e-015 -6.36111e-015 7.95139e-015 -7.15625e-015 6.36111e-015 2.38542e-015 0.0189897 -0.00119199 -6.22584e-005 -1.78906e-015 3.18055e-015 -1.03368e-014 -7.15625e-015 6.36111e-015 2.38542e-015 0.0122781 -0.00325078 -0.000671512 3.97569e-016 -6.36111e-015 -1.98785e-015 -7.15625e-015 6.36111e-015 2.38542e-015 -2.38542e-015 9.54166e-015 4.77083e-015 -1.98785e-015 9.54166e-015 -7.95139e-016 -42.0016 -49.2105 -73.3193 -120.7 41.6545 137.469 -17.5919 -3.34436 -33.2102 2.65733e-008 4.77746e-007 -4.07822e-006 58.0999 -51.3043 86.8403 130.583 41.4805 -124.774 23.86 -10.7457 11.0972 -6.83957e-007 -3.05548e-007 -3.55462e-006 
39.9629 8.61925 25.8767 179.997 58.9977 1.63597e-010 0.549063 7.6367 -0.563219 1.19073 15.2672 -1.21748 1.19072 15.2672 -1.21748 2.17588e-005 13.9934 -6.68974e-006 -6.56903e-007 0.486346 7.54775e-007 -46.8359 -3.59529 -2.81763 -0.399678 55.1536 8.66014 3.4177 36.1176 -7.35848 3.40767 8.58344 -5.0244 3.88314e-007 1.70835e-007 4.48609e-008 -1.76556e-031 -1.59028e-015 -6.36111e-015 3.88314e-007 1.70835e-007 4.48609e-008 3.88314e-007 1.70835e-007 4.48609e-008 -0.0146162 -8.8102e-005 8.70405e-008 3.88316e-007 1.70829e-007 4.48824e-008 3.88314e-007 1.70835e-007 4.48609e-008 -0.0187647 -0.00117539 5.77251e-005 4.66199e-007 1.33568e-007 8.09225e-007 3.88314e-007 1.70835e-007 4.48609e-008 -0.0122702 -0.0032469 0.000677605 3.88318e-007 1.70828e-007 4.48681e-008 3.88314e-007 1.70835e-007 4.48609e-008 -1.76556e-031 -1.59028e-015 -6.36111e-015 3.88314e-007 1.70835e-007 4.48609e-008 46.851 -5.65052 -13.6729 41.5147 -11.4836 69.136 -159.383 89.1713 -146.174 -13.3945 -27.2799 9.14168 -5.76476e-015 0 -2.78299e-015 -3.97569e-015 6.36111e-015 2.78299e-015 1.19271e-015 9.54166e-015 -0 -5.76476e-015 0 -2.78299e-015 0.0150072 -9.16545e-005 3.36783e-006 8.34896e-015 -9.54166e-015 5.1684e-015 -5.76476e-015 0 -2.78299e-015 0.0189425 -0.00118866 -6.15693e-005 1.39149e-015 3.18055e-015 5.96354e-015 -5.76476e-015 0 -2.78299e-015 0.0122604 -0.00324325 -0.000673097 -6.36111e-015 6.36111e-015 3.57812e-015 -5.76476e-015 0 -2.78299e-015 -3.97569e-015 6.36111e-015 2.78299e-015 1.19271e-015 9.54166e-015 -0 -42.0025 -49.2103 -73.319 -120.7 41.6547 137.469 -17.591 -3.34416 -33.2096 -1.44366e-006 1.36456e-006 -2.46169e-006 57.7614 -51.2111 86.5605 130.399 41.7604 -124.5 23.8546 -10.7521 11.0942 6.36111e-015 4.77083e-015 1.98785e-015 
39.9618 8.61924 25.9805 179.997 58.9977 1.63597e-010 0.549893 7.56172 -0.56115 1.19101 15.1172 -1.21229 1.19101 15.1172 -1.21229 4.32675e-005 13.9932 -2.11118e-005 -5.46778e-007 0.442374 9.37918e-007 -46.5119 -3.62939 -2.33677 -0.293362 55.166 7.7748 3.19093 36.1429 -6.92953 3.23062 8.9048 -5.02929 2.38542e-015 -7.95139e-016 -0 -3.88313e-007 -1.7079e-007 -4.50965e-008 3.88313e-007 1.7079e-007 4.50965e-008 2.38542e-015 -7.95139e-016 -0 -0.0145994 -8.87428e-005 -7.00956e-006 4.77493e-007 7.91361e-007 -2.32752e-006 2.38542e-015 -7.95139e-016 -0 -0.0187575 -0.00117658 5.79996e-005 3.88316e-007 1.70782e-007 4.51204e-008 2.38542e-015 -7.95139e-016 -0 -0.0122696 -0.003247 0.000674178 4.77716e-007 7.90928e-007 -2.32747e-006 2.38542e-015 -7.95139e-016 -0 -3.88313e-007 -1.7079e-007 -4.50965e-008 3.88313e-007 1.7079e-007 4.50965e-008 46.965 -5.3863 -13.688 41.4266 -11.5048 68.7292 154.417 89.5308 -100.495 -13.0773 -27.3059 9.08617 -3.18055e-015 6.36111e-015 1.98785e-015 -2.85469e-006 -6.02322e-007 -8.79805e-007 -6.36111e-015 -1.27222e-014 5.1684e-015 -3.18055e-015 6.36111e-015 1.98785e-015 0.0149082 -9.04191e-005 -8.61935e-007 4.77083e-015 0 7.55382e-015 -3.18055e-015 6.36111e-015 1.98785e-015 0.0190597 -0.00119451 -6.18029e-005 1.59028e-015 9.54166e-015 -7.55382e-015 -3.18055e-015 6.36111e-015 1.98785e-015 0.0122149 -0.0032358 -0.000671161 2.3497e-006 -1.43219e-006 1.868e-006 -3.18055e-015 6.36111e-015 1.98785e-015 -2.85469e-006 -6.02322e-007 -8.79805e-007 -6.36111e-015 -1.27222e-014 5.1684e-015 -42.0035 -49.2101 -73.3188 -120.699 41.6549 137.469 -17.5901 -3.34399 -33.209 2.6573e-008 4.77746e-007 -4.07822e-006 57.4243 -51.1169 86.2819 130.213 42.0399 -124.225 23.8492 -10.7585 11.091 1.42203e-006 2.24525e-006 -2.65257e-006 
